<mxfile host="Electron" modified="2025-03-21T14:59:25.640Z" agent="Mozilla/5.0 (Windows NT 10.0; Win64; x64) AppleWebKit/537.36 (KHTML, like Gecko) draw.io/21.6.1 Chrome/112.0.5615.204 Electron/24.6.1 Safari/537.36" etag="E4L3xAh66qc-abyQ2Epg" version="21.6.1" type="device">
  <diagram id="yPxyJZ8AM_hMuL3Unpa9" name="gitflow">
    <mxGraphModel dx="1195" dy="703" grid="1" gridSize="10" guides="1" tooltips="1" connect="1" arrows="1" fold="1" page="1" pageScale="1" pageWidth="850" pageHeight="1100" math="0" shadow="0">
      <root>
        <mxCell id="0" />
        <mxCell id="1" parent="0" />
        <mxCell id="22" style="edgeStyle=orthogonalEdgeStyle;rounded=1;orthogonalLoop=1;jettySize=auto;html=1;dashed=1;endArrow=none;endFill=0;fillColor=#d5e8d4;strokeColor=#82b366;entryX=0;entryY=0.5;entryDx=0;entryDy=0;" parent="1" source="4" target="21" edge="1">
          <mxGeometry relative="1" as="geometry">
            <Array as="points">
              <mxPoint x="51" y="70" />
              <mxPoint x="51" y="266" />
            </Array>
          </mxGeometry>
        </mxCell>
        <mxCell id="4" value="V4.0.0" style="ellipse;whiteSpace=wrap;html=1;aspect=fixed;fillColor=#dae8fc;strokeColor=#6c8ebf;fontStyle=1;labelPosition=center;verticalLabelPosition=top;align=center;verticalAlign=bottom;fontColor=#0066CC;" parent="1" vertex="1">
          <mxGeometry x="21" y="60" width="20" height="20" as="geometry" />
        </mxCell>
        <mxCell id="7" value="Main = Current" style="text;html=1;strokeColor=#6c8ebf;fillColor=#dae8fc;align=center;verticalAlign=middle;whiteSpace=wrap;rounded=0;" parent="1" vertex="1">
          <mxGeometry x="740" y="60" width="90" height="20" as="geometry" />
        </mxCell>
        <mxCell id="8" value="" style="endArrow=none;dashed=1;html=1;fillColor=#f8cecc;strokeColor=#b85450;entryX=0;entryY=0.5;entryDx=0;entryDy=0;endFill=0;" parent="1" source="9" target="12" edge="1">
          <mxGeometry width="50" height="50" relative="1" as="geometry">
            <mxPoint x="-2" y="150" as="sourcePoint" />
            <mxPoint x="558" y="122" as="targetPoint" />
            <Array as="points">
              <mxPoint x="668" y="100" />
              <mxPoint x="668" y="70" />
            </Array>
          </mxGeometry>
        </mxCell>
        <mxCell id="93" style="edgeStyle=orthogonalEdgeStyle;rounded=1;orthogonalLoop=1;jettySize=auto;html=1;dashed=1;endArrow=none;endFill=0;fontSize=12;fontColor=#FFB570;fillColor=#d5e8d4;strokeColor=#82b366;entryX=0;entryY=0.5;entryDx=0;entryDy=0;exitX=1;exitY=0.5;exitDx=0;exitDy=0;" parent="1" source="9" target="78" edge="1">
          <mxGeometry relative="1" as="geometry">
            <Array as="points">
              <mxPoint x="668" y="100" />
              <mxPoint x="668" y="266" />
            </Array>
          </mxGeometry>
        </mxCell>
        <mxCell id="9" value="hotfix/V5.0.1" style="ellipse;whiteSpace=wrap;html=1;aspect=fixed;fillColor=#f8cecc;strokeColor=#b85450;fontColor=#b85450;labelPosition=center;verticalLabelPosition=top;align=center;verticalAlign=top;fontStyle=1;fontSize=10;" parent="1" vertex="1">
          <mxGeometry x="628.97" y="90" width="20" height="20" as="geometry" />
        </mxCell>
        <mxCell id="12" value="V5.0.1" style="ellipse;whiteSpace=wrap;html=1;aspect=fixed;fillColor=#dae8fc;strokeColor=#6c8ebf;fontStyle=1;labelPosition=center;verticalLabelPosition=top;align=center;verticalAlign=bottom;fontColor=#0066CC;" parent="1" vertex="1">
          <mxGeometry x="678" y="60" width="20" height="20" as="geometry" />
        </mxCell>
        <mxCell id="13" value="" style="endArrow=none;dashed=1;html=1;fillColor=#dae8fc;strokeColor=#6c8ebf;" parent="1" source="6" target="12" edge="1">
          <mxGeometry width="50" height="50" relative="1" as="geometry">
            <mxPoint x="8" y="70" as="sourcePoint" />
            <mxPoint x="658" y="70" as="targetPoint" />
          </mxGeometry>
        </mxCell>
        <mxCell id="19" style="edgeStyle=orthogonalEdgeStyle;rounded=1;orthogonalLoop=1;jettySize=auto;html=1;fillColor=#f8cecc;strokeColor=#b85450;dashed=1;endArrow=none;endFill=0;" parent="1" source="6" target="9" edge="1">
          <mxGeometry relative="1" as="geometry">
            <Array as="points">
              <mxPoint x="608" y="100" />
            </Array>
          </mxGeometry>
        </mxCell>
        <mxCell id="20" value="Hotfix / Bug" style="text;html=1;strokeColor=#b85450;fillColor=#f8cecc;align=center;verticalAlign=middle;whiteSpace=wrap;rounded=0;" parent="1" vertex="1">
          <mxGeometry x="740" y="90" width="90" height="20" as="geometry" />
        </mxCell>
        <mxCell id="73" style="edgeStyle=orthogonalEdgeStyle;rounded=1;orthogonalLoop=1;jettySize=auto;html=1;dashed=1;endArrow=none;endFill=0;fontSize=10;fontColor=#FFB570;fillColor=#e1d5e7;strokeColor=#9673a6;" parent="1" source="21" target="51" edge="1">
          <mxGeometry relative="1" as="geometry">
            <Array as="points">
              <mxPoint x="101" y="266" />
              <mxPoint x="101" y="297" />
            </Array>
          </mxGeometry>
        </mxCell>
        <mxCell id="172" style="edgeStyle=orthogonalEdgeStyle;rounded=1;orthogonalLoop=1;jettySize=auto;html=1;dashed=1;endArrow=none;endFill=0;fontSize=12;fontColor=#FFB570;fillColor=#e1d5e7;strokeColor=#9673a6;" parent="1" source="21" target="63" edge="1">
          <mxGeometry relative="1" as="geometry">
            <Array as="points">
              <mxPoint x="101" y="266" />
              <mxPoint x="101" y="334" />
            </Array>
          </mxGeometry>
        </mxCell>
        <mxCell id="21" value="" style="ellipse;whiteSpace=wrap;html=1;aspect=fixed;fillColor=#d5e8d4;strokeColor=#82b366;" parent="1" vertex="1">
          <mxGeometry x="71" y="256" width="20" height="20" as="geometry" />
        </mxCell>
        <mxCell id="24" value="Develop = Next" style="text;html=1;strokeColor=#82b366;fillColor=#d5e8d4;align=center;verticalAlign=middle;whiteSpace=wrap;rounded=0;" parent="1" vertex="1">
          <mxGeometry x="740" y="256" width="90" height="20" as="geometry" />
        </mxCell>
        <mxCell id="25" value="" style="ellipse;whiteSpace=wrap;html=1;aspect=fixed;fillColor=#d5e8d4;strokeColor=#82b366;" parent="1" vertex="1">
          <mxGeometry x="157.97" y="256" width="20" height="20" as="geometry" />
        </mxCell>
        <mxCell id="26" style="edgeStyle=orthogonalEdgeStyle;rounded=1;orthogonalLoop=1;jettySize=auto;html=1;dashed=1;endArrow=none;endFill=0;fillColor=#d5e8d4;strokeColor=#82b366;" parent="1" source="21" target="25" edge="1">
          <mxGeometry relative="1" as="geometry">
            <mxPoint x="671" y="266" as="targetPoint" />
            <mxPoint x="101" y="266" as="sourcePoint" />
          </mxGeometry>
        </mxCell>
        <mxCell id="114" style="edgeStyle=orthogonalEdgeStyle;rounded=1;orthogonalLoop=1;jettySize=auto;html=1;dashed=1;endArrow=none;endFill=0;fontSize=12;fontColor=#FFB570;fillColor=#e1d5e7;strokeColor=#9673a6;entryX=0;entryY=0.5;entryDx=0;entryDy=0;" parent="1" target="65" edge="1">
          <mxGeometry relative="1" as="geometry">
            <Array as="points">
              <mxPoint x="321" y="266" />
              <mxPoint x="321" y="334" />
            </Array>
            <mxPoint x="301" y="266" as="sourcePoint" />
          </mxGeometry>
        </mxCell>
        <mxCell id="27" value="" style="ellipse;whiteSpace=wrap;html=1;aspect=fixed;fillColor=#d5e8d4;strokeColor=#82b366;" parent="1" vertex="1">
          <mxGeometry x="241.97000000000003" y="256" width="20" height="20" as="geometry" />
        </mxCell>
        <mxCell id="28" style="edgeStyle=orthogonalEdgeStyle;rounded=1;orthogonalLoop=1;jettySize=auto;html=1;dashed=1;endArrow=none;endFill=0;fillColor=#d5e8d4;strokeColor=#82b366;" parent="1" source="25" target="27" edge="1">
          <mxGeometry relative="1" as="geometry">
            <mxPoint x="671" y="266" as="targetPoint" />
            <mxPoint x="231" y="266" as="sourcePoint" />
          </mxGeometry>
        </mxCell>
        <mxCell id="44" style="edgeStyle=orthogonalEdgeStyle;rounded=1;orthogonalLoop=1;jettySize=auto;html=1;dashed=1;endArrow=none;endFill=0;fontSize=10;fontColor=#FFB570;fillColor=#ffe6cc;strokeColor=#d79b00;" parent="1" source="29" target="39" edge="1">
          <mxGeometry relative="1" as="geometry">
            <Array as="points">
              <mxPoint x="461" y="266" />
              <mxPoint x="461" y="236" />
            </Array>
          </mxGeometry>
        </mxCell>
        <mxCell id="29" value="" style="ellipse;whiteSpace=wrap;html=1;aspect=fixed;fillColor=#d5e8d4;strokeColor=#82b366;" parent="1" vertex="1">
          <mxGeometry x="436.97" y="256" width="20" height="20" as="geometry" />
        </mxCell>
        <mxCell id="30" style="edgeStyle=orthogonalEdgeStyle;rounded=1;orthogonalLoop=1;jettySize=auto;html=1;dashed=1;endArrow=none;endFill=0;fillColor=#d5e8d4;strokeColor=#82b366;exitX=1;exitY=0.5;exitDx=0;exitDy=0;" parent="1" source="pq42PLdv0mAkTyG6DXav-204" target="29" edge="1">
          <mxGeometry relative="1" as="geometry">
            <mxPoint x="684" y="266" as="targetPoint" />
            <mxPoint x="333.97" y="265.9999999999999" as="sourcePoint" />
          </mxGeometry>
        </mxCell>
        <mxCell id="177" style="edgeStyle=orthogonalEdgeStyle;rounded=1;orthogonalLoop=1;jettySize=auto;html=1;entryX=0;entryY=0.5;entryDx=0;entryDy=0;dashed=1;fillColor=#d5e8d4;strokeColor=#82b366;endArrow=none;endFill=0;exitX=1;exitY=0.5;exitDx=0;exitDy=0;" parent="1" source="36" target="92" edge="1">
          <mxGeometry relative="1" as="geometry">
            <Array as="points">
              <mxPoint x="608" y="235" />
              <mxPoint x="608" y="267" />
              <mxPoint x="623" y="267" />
            </Array>
          </mxGeometry>
        </mxCell>
        <mxCell id="6" value="V5.0.0" style="ellipse;whiteSpace=wrap;html=1;aspect=fixed;fillColor=#dae8fc;strokeColor=#6c8ebf;fontStyle=1;labelPosition=center;verticalLabelPosition=top;align=center;verticalAlign=bottom;fontColor=#0066CC;" parent="1" vertex="1">
          <mxGeometry x="582" y="60" width="20" height="20" as="geometry" />
        </mxCell>
        <mxCell id="35" value="" style="endArrow=none;dashed=1;html=1;fillColor=#dae8fc;strokeColor=#6c8ebf;exitX=1;exitY=0.5;exitDx=0;exitDy=0;" parent="1" source="pq42PLdv0mAkTyG6DXav-197" target="6" edge="1">
          <mxGeometry width="50" height="50" relative="1" as="geometry">
            <mxPoint x="444" y="70" as="sourcePoint" />
            <mxPoint x="724" y="70" as="targetPoint" />
            <Array as="points" />
          </mxGeometry>
        </mxCell>
        <mxCell id="43" style="edgeStyle=orthogonalEdgeStyle;rounded=1;orthogonalLoop=1;jettySize=auto;html=1;dashed=1;endArrow=none;endFill=0;fontSize=10;fontColor=#FFB570;fillColor=#ffe6cc;strokeColor=#d79b00;exitX=1;exitY=0.5;exitDx=0;exitDy=0;" parent="1" source="36" target="6" edge="1">
          <mxGeometry relative="1" as="geometry">
            <Array as="points">
              <mxPoint x="575" y="235" />
              <mxPoint x="575" y="70" />
            </Array>
          </mxGeometry>
        </mxCell>
        <mxCell id="36" value="" style="ellipse;whiteSpace=wrap;html=1;aspect=fixed;fontSize=10;labelPosition=center;verticalLabelPosition=top;align=center;verticalAlign=bottom;fillColor=#ffe6cc;strokeColor=#d79b00;fontColor=#FFB570;" parent="1" vertex="1">
          <mxGeometry x="536" y="225" width="20" height="20" as="geometry" />
        </mxCell>
        <mxCell id="41" style="edgeStyle=orthogonalEdgeStyle;rounded=1;orthogonalLoop=1;jettySize=auto;html=1;dashed=1;endArrow=none;endFill=0;fontSize=10;fontColor=#FFB570;fillColor=#ffe6cc;strokeColor=#d79b00;" parent="1" source="39" target="36" edge="1">
          <mxGeometry relative="1" as="geometry" />
        </mxCell>
        <mxCell id="39" value="release/V5.0.0" style="ellipse;whiteSpace=wrap;html=1;aspect=fixed;fontSize=10;labelPosition=center;verticalLabelPosition=top;align=center;verticalAlign=top;fillColor=#ffe6cc;strokeColor=#d79b00;fontColor=#FFB570;fontStyle=1" parent="1" vertex="1">
          <mxGeometry x="480.65999999999997" y="225" width="20" height="20" as="geometry" />
        </mxCell>
        <mxCell id="42" value="Release" style="text;html=1;strokeColor=#d79b00;fillColor=#ffe6cc;align=center;verticalAlign=middle;whiteSpace=wrap;rounded=0;fontSize=12;" parent="1" vertex="1">
          <mxGeometry x="740" y="225" width="90" height="20" as="geometry" />
        </mxCell>
        <mxCell id="74" style="edgeStyle=orthogonalEdgeStyle;rounded=1;orthogonalLoop=1;jettySize=auto;html=1;dashed=1;endArrow=none;endFill=0;fontSize=10;fontColor=#FFB570;fillColor=#e1d5e7;strokeColor=#9673a6;" parent="1" source="51" target="52" edge="1">
          <mxGeometry relative="1" as="geometry" />
        </mxCell>
        <mxCell id="76" style="edgeStyle=orthogonalEdgeStyle;rounded=1;orthogonalLoop=1;jettySize=auto;html=1;dashed=1;endArrow=none;endFill=0;fontSize=10;fontColor=#FFB570;fillColor=#e1d5e7;strokeColor=#9673a6;entryX=0;entryY=0.5;entryDx=0;entryDy=0;" parent="1" source="52" target="pq42PLdv0mAkTyG6DXav-187" edge="1">
          <mxGeometry relative="1" as="geometry">
            <Array as="points">
              <mxPoint x="271" y="296" />
              <mxPoint x="271" y="266" />
            </Array>
          </mxGeometry>
        </mxCell>
        <mxCell id="52" value="" style="ellipse;whiteSpace=wrap;html=1;aspect=fixed;fontSize=10;fillColor=#e1d5e7;strokeColor=#9673a6;" parent="1" vertex="1">
          <mxGeometry x="200.97" y="287" width="20" height="20" as="geometry" />
        </mxCell>
        <mxCell id="63" value="feature/feature2" style="ellipse;whiteSpace=wrap;html=1;aspect=fixed;fontSize=10;fillColor=#e1d5e7;strokeColor=#9673a6;fontColor=#9673a6;labelPosition=center;verticalLabelPosition=top;align=center;verticalAlign=top;fontStyle=1" parent="1" vertex="1">
          <mxGeometry x="121" y="324" width="20" height="20" as="geometry" />
        </mxCell>
        <mxCell id="99" style="edgeStyle=orthogonalEdgeStyle;rounded=1;orthogonalLoop=1;jettySize=auto;html=1;dashed=1;endArrow=none;endFill=0;fontSize=12;fontColor=#FFB570;fillColor=#e1d5e7;strokeColor=#9673a6;" parent="1" source="65" target="71" edge="1">
          <mxGeometry relative="1" as="geometry" />
        </mxCell>
        <mxCell id="65" value="" style="ellipse;whiteSpace=wrap;html=1;aspect=fixed;fontSize=10;fillColor=#e1d5e7;strokeColor=#9673a6;" parent="1" vertex="1">
          <mxGeometry x="348" y="324" width="20" height="20" as="geometry" />
        </mxCell>
        <mxCell id="100" style="edgeStyle=orthogonalEdgeStyle;rounded=1;orthogonalLoop=1;jettySize=auto;html=1;dashed=1;endArrow=none;endFill=0;fontSize=12;fontColor=#FFB570;fillColor=#e1d5e7;strokeColor=#9673a6;entryX=0;entryY=0.5;entryDx=0;entryDy=0;" parent="1" target="29" edge="1">
          <mxGeometry relative="1" as="geometry">
            <mxPoint x="404" y="276" as="targetPoint" />
            <Array as="points">
              <mxPoint x="421" y="334" />
              <mxPoint x="421" y="266" />
            </Array>
            <mxPoint x="388" y="334" as="sourcePoint" />
          </mxGeometry>
        </mxCell>
        <mxCell id="71" value="" style="ellipse;whiteSpace=wrap;html=1;aspect=fixed;fontSize=10;fillColor=#e1d5e7;strokeColor=#9673a6;" parent="1" vertex="1">
          <mxGeometry x="378" y="324" width="20" height="20" as="geometry" />
        </mxCell>
        <mxCell id="82" style="edgeStyle=orthogonalEdgeStyle;rounded=1;orthogonalLoop=1;jettySize=auto;html=1;dashed=1;endArrow=none;endFill=0;fillColor=#d5e8d4;strokeColor=#82b366;" parent="1" source="29" target="92" edge="1">
          <mxGeometry relative="1" as="geometry">
            <mxPoint x="534" y="246" as="targetPoint" />
            <mxPoint x="494" y="246" as="sourcePoint" />
          </mxGeometry>
        </mxCell>
        <mxCell id="85" value="Feature team 1" style="text;html=1;strokeColor=#9673a6;fillColor=#e1d5e7;align=center;verticalAlign=middle;whiteSpace=wrap;rounded=0;" parent="1" vertex="1">
          <mxGeometry x="740" y="287" width="90" height="20" as="geometry" />
        </mxCell>
        <mxCell id="86" value="Feature team 2" style="text;html=1;strokeColor=#9673a6;fillColor=#e1d5e7;align=center;verticalAlign=middle;whiteSpace=wrap;rounded=0;" parent="1" vertex="1">
          <mxGeometry x="740" y="324" width="90" height="20" as="geometry" />
        </mxCell>
        <mxCell id="166" style="edgeStyle=orthogonalEdgeStyle;rounded=1;orthogonalLoop=1;jettySize=auto;html=1;dashed=1;endArrow=none;endFill=0;fontSize=12;fontColor=#FFB570;fillColor=#e1d5e7;strokeColor=#9673a6;" parent="1" source="92" target="165" edge="1">
          <mxGeometry relative="1" as="geometry">
            <Array as="points">
              <mxPoint x="633" y="296" />
            </Array>
          </mxGeometry>
        </mxCell>
        <mxCell id="169" style="edgeStyle=orthogonalEdgeStyle;rounded=1;orthogonalLoop=1;jettySize=auto;html=1;dashed=1;endArrow=none;endFill=0;fontSize=12;fontColor=#FFB570;fillColor=#e1d5e7;strokeColor=#9673a6;" parent="1" source="92" edge="1">
          <mxGeometry relative="1" as="geometry">
            <Array as="points">
              <mxPoint x="633" y="334" />
            </Array>
            <mxPoint x="663" y="334" as="targetPoint" />
          </mxGeometry>
        </mxCell>
        <mxCell id="92" value="" style="ellipse;whiteSpace=wrap;html=1;aspect=fixed;fontSize=10;fillColor=#d5e8d4;strokeColor=#82b366;" parent="1" vertex="1">
          <mxGeometry x="622.97" y="256" width="20" height="20" as="geometry" />
        </mxCell>
        <mxCell id="116" style="edgeStyle=orthogonalEdgeStyle;rounded=1;orthogonalLoop=1;jettySize=auto;html=1;dashed=1;endArrow=none;endFill=0;fontSize=12;fontColor=#FFB570;fillColor=#e1d5e7;strokeColor=#9673a6;" parent="1" source="63" target="65" edge="1">
          <mxGeometry relative="1" as="geometry">
            <mxPoint x="150.97" y="354" as="sourcePoint" />
            <mxPoint x="200.97" y="354" as="targetPoint" />
          </mxGeometry>
        </mxCell>
        <mxCell id="78" value="" style="ellipse;whiteSpace=wrap;html=1;aspect=fixed;fontSize=12;fillColor=#d5e8d4;strokeColor=#82b366;" parent="1" vertex="1">
          <mxGeometry x="702" y="256" width="20" height="20" as="geometry" />
        </mxCell>
        <mxCell id="146" style="edgeStyle=orthogonalEdgeStyle;rounded=1;orthogonalLoop=1;jettySize=auto;html=1;dashed=1;endArrow=none;endFill=0;fillColor=#d5e8d4;strokeColor=#82b366;" parent="1" source="92" target="78" edge="1">
          <mxGeometry relative="1" as="geometry">
            <mxPoint x="718" y="246" as="targetPoint" />
            <mxPoint x="628" y="246" as="sourcePoint" />
            <Array as="points" />
          </mxGeometry>
        </mxCell>
        <mxCell id="165" value="" style="ellipse;whiteSpace=wrap;html=1;aspect=fixed;fontSize=12;fillColor=#e1d5e7;strokeColor=#9673a6;" parent="1" vertex="1">
          <mxGeometry x="653" y="287" width="20" height="20" as="geometry" />
        </mxCell>
        <mxCell id="168" value="" style="ellipse;whiteSpace=wrap;html=1;aspect=fixed;fontSize=12;fillColor=#e1d5e7;strokeColor=#9673a6;" parent="1" vertex="1">
          <mxGeometry x="653" y="324" width="20" height="20" as="geometry" />
        </mxCell>
        <mxCell id="51" value="feature/feature1" style="ellipse;whiteSpace=wrap;html=1;aspect=fixed;fontSize=10;fillColor=#e1d5e7;strokeColor=#9673a6;fontColor=#9673a6;labelPosition=center;verticalLabelPosition=top;align=center;verticalAlign=top;fontStyle=1" parent="1" vertex="1">
          <mxGeometry x="110.97" y="287" width="20" height="20" as="geometry" />
        </mxCell>
        <mxCell id="pq42PLdv0mAkTyG6DXav-180" value="" style="endArrow=none;dashed=1;html=1;fillColor=#dae8fc;strokeColor=#6c8ebf;" edge="1" parent="1" source="4" target="pq42PLdv0mAkTyG6DXav-179">
          <mxGeometry width="50" height="50" relative="1" as="geometry">
            <mxPoint x="41" y="70" as="sourcePoint" />
            <mxPoint x="631" y="70" as="targetPoint" />
            <Array as="points" />
          </mxGeometry>
        </mxCell>
        <mxCell id="pq42PLdv0mAkTyG6DXav-179" value="V4.0.2" style="ellipse;whiteSpace=wrap;html=1;aspect=fixed;fillColor=#dae8fc;strokeColor=#6c8ebf;fontStyle=1;labelPosition=center;verticalLabelPosition=top;align=center;verticalAlign=bottom;fontColor=#0066CC;" vertex="1" parent="1">
          <mxGeometry x="91" y="60" width="20" height="20" as="geometry" />
        </mxCell>
        <mxCell id="pq42PLdv0mAkTyG6DXav-182" value="hotfix/V4.0.3" style="ellipse;whiteSpace=wrap;html=1;aspect=fixed;fillColor=#f8cecc;strokeColor=#b85450;fontColor=#b85450;labelPosition=center;verticalLabelPosition=top;align=center;verticalAlign=top;fontStyle=1;fontSize=10;" vertex="1" parent="1">
          <mxGeometry x="170.97" y="90" width="20" height="20" as="geometry" />
        </mxCell>
        <mxCell id="pq42PLdv0mAkTyG6DXav-183" style="edgeStyle=orthogonalEdgeStyle;rounded=1;orthogonalLoop=1;jettySize=auto;html=1;fillColor=#f8cecc;strokeColor=#b85450;dashed=1;endArrow=none;endFill=0;exitX=1;exitY=0.5;exitDx=0;exitDy=0;entryX=0;entryY=0.5;entryDx=0;entryDy=0;" edge="1" parent="1" source="pq42PLdv0mAkTyG6DXav-179" target="pq42PLdv0mAkTyG6DXav-182">
          <mxGeometry relative="1" as="geometry">
            <Array as="points">
              <mxPoint x="121" y="70" />
              <mxPoint x="121" y="100" />
            </Array>
            <mxPoint x="547" y="90" as="sourcePoint" />
            <mxPoint x="571" y="110" as="targetPoint" />
          </mxGeometry>
        </mxCell>
        <mxCell id="pq42PLdv0mAkTyG6DXav-185" value="" style="endArrow=none;dashed=1;html=1;strokeWidth=1;rounded=1;exitX=1;exitY=0.5;exitDx=0;exitDy=0;fillColor=#f8cecc;strokeColor=#b85450;edgeStyle=orthogonalEdgeStyle;" edge="1" parent="1" source="pq42PLdv0mAkTyG6DXav-182" target="pq42PLdv0mAkTyG6DXav-181">
          <mxGeometry width="50" height="50" relative="1" as="geometry">
            <mxPoint x="287" y="390" as="sourcePoint" />
            <mxPoint x="337" y="340" as="targetPoint" />
            <Array as="points">
              <mxPoint x="221" y="100" />
            </Array>
          </mxGeometry>
        </mxCell>
        <mxCell id="pq42PLdv0mAkTyG6DXav-186" style="edgeStyle=orthogonalEdgeStyle;rounded=1;orthogonalLoop=1;jettySize=auto;html=1;dashed=1;endArrow=none;endFill=0;fontSize=12;fontColor=#FFB570;fillColor=#d5e8d4;strokeColor=#82b366;" edge="1" parent="1" source="pq42PLdv0mAkTyG6DXav-182" target="27">
          <mxGeometry relative="1" as="geometry">
            <Array as="points">
              <mxPoint x="211" y="100" />
              <mxPoint x="211" y="266" />
            </Array>
            <mxPoint x="211.97" y="100" as="sourcePoint" />
            <mxPoint x="241.97" y="239" as="targetPoint" />
          </mxGeometry>
        </mxCell>
        <mxCell id="pq42PLdv0mAkTyG6DXav-188" value="" style="edgeStyle=orthogonalEdgeStyle;rounded=1;orthogonalLoop=1;jettySize=auto;html=1;dashed=1;endArrow=none;endFill=0;fillColor=#d5e8d4;strokeColor=#82b366;" edge="1" parent="1" source="27" target="pq42PLdv0mAkTyG6DXav-187">
          <mxGeometry relative="1" as="geometry">
            <mxPoint x="381" y="266" as="targetPoint" />
            <mxPoint x="281" y="266" as="sourcePoint" />
          </mxGeometry>
        </mxCell>
        <mxCell id="pq42PLdv0mAkTyG6DXav-187" value="" style="ellipse;whiteSpace=wrap;html=1;aspect=fixed;fillColor=#d5e8d4;strokeColor=#82b366;" vertex="1" parent="1">
          <mxGeometry x="291" y="256" width="20" height="20" as="geometry" />
        </mxCell>
        <mxCell id="pq42PLdv0mAkTyG6DXav-191" value="Hotfix / Evol" style="text;html=1;strokeColor=#b85450;fillColor=#f8cecc;align=center;verticalAlign=middle;whiteSpace=wrap;rounded=0;" vertex="1" parent="1">
          <mxGeometry x="740" y="120" width="90" height="20" as="geometry" />
        </mxCell>
        <mxCell id="pq42PLdv0mAkTyG6DXav-193" style="edgeStyle=orthogonalEdgeStyle;rounded=1;orthogonalLoop=1;jettySize=auto;html=1;fillColor=#f8cecc;strokeColor=#b85450;dashed=1;endArrow=none;endFill=0;exitX=1;exitY=0.5;exitDx=0;exitDy=0;entryX=0;entryY=0.5;entryDx=0;entryDy=0;" edge="1" parent="1" source="pq42PLdv0mAkTyG6DXav-179" target="pq42PLdv0mAkTyG6DXav-192">
          <mxGeometry relative="1" as="geometry">
            <Array as="points">
              <mxPoint x="121" y="70" />
              <mxPoint x="121" y="130" />
            </Array>
            <mxPoint x="147" y="90" as="sourcePoint" />
            <mxPoint x="197" y="110" as="targetPoint" />
          </mxGeometry>
        </mxCell>
        <mxCell id="pq42PLdv0mAkTyG6DXav-194" value="" style="ellipse;whiteSpace=wrap;html=1;aspect=fixed;fillColor=#f8cecc;strokeColor=#b85450;" vertex="1" parent="1">
          <mxGeometry x="324" y="120" width="20" height="20" as="geometry" />
        </mxCell>
        <mxCell id="pq42PLdv0mAkTyG6DXav-195" value="" style="ellipse;whiteSpace=wrap;html=1;aspect=fixed;fillColor=#f8cecc;strokeColor=#b85450;" vertex="1" parent="1">
          <mxGeometry x="271" y="120" width="20" height="20" as="geometry" />
        </mxCell>
        <mxCell id="pq42PLdv0mAkTyG6DXav-196" value="" style="endArrow=none;dashed=1;html=1;strokeWidth=1;rounded=1;exitX=1;exitY=0.5;exitDx=0;exitDy=0;fillColor=#f8cecc;strokeColor=#b85450;edgeStyle=orthogonalEdgeStyle;" edge="1" parent="1">
          <mxGeometry width="50" height="50" relative="1" as="geometry">
            <mxPoint x="343.47" y="130" as="sourcePoint" />
            <mxPoint x="371" y="70" as="targetPoint" />
            <Array as="points">
              <mxPoint x="361" y="130" />
              <mxPoint x="361" y="70" />
            </Array>
          </mxGeometry>
        </mxCell>
        <mxCell id="pq42PLdv0mAkTyG6DXav-198" value="" style="endArrow=none;dashed=1;html=1;fillColor=#dae8fc;strokeColor=#6c8ebf;" edge="1" parent="1" source="pq42PLdv0mAkTyG6DXav-179">
          <mxGeometry width="50" height="50" relative="1" as="geometry">
            <mxPoint x="147" y="70" as="sourcePoint" />
            <mxPoint x="221" y="70" as="targetPoint" />
            <Array as="points" />
          </mxGeometry>
        </mxCell>
        <mxCell id="pq42PLdv0mAkTyG6DXav-197" value="V4.1.0&lt;br&gt;" style="ellipse;whiteSpace=wrap;html=1;aspect=fixed;fillColor=#dae8fc;strokeColor=#6c8ebf;fontStyle=1;labelPosition=center;verticalLabelPosition=top;align=center;verticalAlign=bottom;fontColor=#0066CC;" vertex="1" parent="1">
          <mxGeometry x="373" y="60" width="20" height="20" as="geometry" />
        </mxCell>
        <mxCell id="pq42PLdv0mAkTyG6DXav-199" value="" style="endArrow=none;dashed=1;html=1;strokeWidth=1;rounded=0;exitX=1;exitY=0.5;exitDx=0;exitDy=0;entryX=0;entryY=0.5;entryDx=0;entryDy=0;fillColor=#f8cecc;strokeColor=#b85450;" edge="1" parent="1" source="pq42PLdv0mAkTyG6DXav-192" target="pq42PLdv0mAkTyG6DXav-195">
          <mxGeometry width="50" height="50" relative="1" as="geometry">
            <mxPoint x="391" y="390" as="sourcePoint" />
            <mxPoint x="441" y="340" as="targetPoint" />
          </mxGeometry>
        </mxCell>
        <mxCell id="pq42PLdv0mAkTyG6DXav-200" value="" style="endArrow=none;dashed=1;html=1;strokeWidth=1;rounded=0;exitX=1;exitY=0.5;exitDx=0;exitDy=0;entryX=0;entryY=0.5;entryDx=0;entryDy=0;fillColor=#f8cecc;strokeColor=#b85450;" edge="1" parent="1" source="pq42PLdv0mAkTyG6DXav-195" target="pq42PLdv0mAkTyG6DXav-194">
          <mxGeometry width="50" height="50" relative="1" as="geometry">
            <mxPoint x="391" y="390" as="sourcePoint" />
            <mxPoint x="441" y="340" as="targetPoint" />
          </mxGeometry>
        </mxCell>
        <mxCell id="pq42PLdv0mAkTyG6DXav-201" style="edgeStyle=orthogonalEdgeStyle;rounded=1;orthogonalLoop=1;jettySize=auto;html=1;fillColor=#f8cecc;strokeColor=#b85450;dashed=1;endArrow=none;endFill=0;entryX=0;entryY=0.5;entryDx=0;entryDy=0;" edge="1" parent="1" source="pq42PLdv0mAkTyG6DXav-182" target="pq42PLdv0mAkTyG6DXav-216">
          <mxGeometry relative="1" as="geometry">
            <Array as="points">
              <mxPoint x="221" y="100" />
              <mxPoint x="221" y="130" />
            </Array>
            <mxPoint x="238" y="70" as="sourcePoint" />
            <mxPoint x="267" y="120" as="targetPoint" />
          </mxGeometry>
        </mxCell>
        <mxCell id="pq42PLdv0mAkTyG6DXav-203" value="" style="edgeStyle=orthogonalEdgeStyle;rounded=1;orthogonalLoop=1;jettySize=auto;html=1;dashed=1;endArrow=none;endFill=0;fillColor=#d5e8d4;strokeColor=#82b366;exitX=1;exitY=0.5;exitDx=0;exitDy=0;" edge="1" parent="1" source="pq42PLdv0mAkTyG6DXav-187" target="pq42PLdv0mAkTyG6DXav-202">
          <mxGeometry relative="1" as="geometry">
            <mxPoint x="394" y="266" as="targetPoint" />
            <mxPoint x="311" y="266" as="sourcePoint" />
          </mxGeometry>
        </mxCell>
        <mxCell id="pq42PLdv0mAkTyG6DXav-202" value="" style="ellipse;whiteSpace=wrap;html=1;aspect=fixed;fillColor=#d5e8d4;strokeColor=#82b366;" vertex="1" parent="1">
          <mxGeometry x="334" y="256" width="20" height="20" as="geometry" />
        </mxCell>
        <mxCell id="pq42PLdv0mAkTyG6DXav-204" value="" style="ellipse;whiteSpace=wrap;html=1;aspect=fixed;fillColor=#d5e8d4;strokeColor=#82b366;" vertex="1" parent="1">
          <mxGeometry x="373" y="256" width="20" height="20" as="geometry" />
        </mxCell>
        <mxCell id="pq42PLdv0mAkTyG6DXav-206" style="edgeStyle=orthogonalEdgeStyle;rounded=1;orthogonalLoop=1;jettySize=auto;html=1;dashed=1;endArrow=none;endFill=0;fontSize=12;fontColor=#FFB570;fillColor=#d5e8d4;strokeColor=#82b366;exitX=1;exitY=0.5;exitDx=0;exitDy=0;" edge="1" parent="1" source="pq42PLdv0mAkTyG6DXav-194" target="pq42PLdv0mAkTyG6DXav-204">
          <mxGeometry relative="1" as="geometry">
            <Array as="points">
              <mxPoint x="361" y="130" />
              <mxPoint x="361" y="266" />
            </Array>
            <mxPoint x="366" y="100" as="sourcePoint" />
            <mxPoint x="396" y="239" as="targetPoint" />
          </mxGeometry>
        </mxCell>
        <mxCell id="pq42PLdv0mAkTyG6DXav-181" value="V4.0.3" style="ellipse;whiteSpace=wrap;html=1;aspect=fixed;fillColor=#dae8fc;strokeColor=#6c8ebf;fontStyle=1;labelPosition=center;verticalLabelPosition=top;align=center;verticalAlign=bottom;fontColor=#0066CC;" vertex="1" parent="1">
          <mxGeometry x="227.97" y="60" width="20" height="20" as="geometry" />
        </mxCell>
        <mxCell id="pq42PLdv0mAkTyG6DXav-208" value="" style="endArrow=none;dashed=1;html=1;strokeWidth=1;rounded=0;exitX=1;exitY=0.5;exitDx=0;exitDy=0;entryX=0;entryY=0.5;entryDx=0;entryDy=0;fillColor=#d5e8d4;strokeColor=#82b366;" edge="1" parent="1" source="pq42PLdv0mAkTyG6DXav-202" target="pq42PLdv0mAkTyG6DXav-204">
          <mxGeometry width="50" height="50" relative="1" as="geometry">
            <mxPoint x="331" y="276" as="sourcePoint" />
            <mxPoint x="381" y="226" as="targetPoint" />
          </mxGeometry>
        </mxCell>
        <mxCell id="pq42PLdv0mAkTyG6DXav-209" value="Hotfeature 1" style="text;html=1;strokeColor=#9673a6;fillColor=#e1d5e7;align=center;verticalAlign=middle;whiteSpace=wrap;rounded=0;" vertex="1" parent="1">
          <mxGeometry x="740" y="162" width="90" height="20" as="geometry" />
        </mxCell>
        <mxCell id="pq42PLdv0mAkTyG6DXav-212" value="" style="endArrow=none;dashed=1;html=1;fillColor=#dae8fc;strokeColor=#6c8ebf;exitX=1;exitY=0.5;exitDx=0;exitDy=0;entryX=0;entryY=0.5;entryDx=0;entryDy=0;" edge="1" parent="1" source="pq42PLdv0mAkTyG6DXav-181" target="pq42PLdv0mAkTyG6DXav-197">
          <mxGeometry width="50" height="50" relative="1" as="geometry">
            <mxPoint x="403" y="80" as="sourcePoint" />
            <mxPoint x="592" y="80" as="targetPoint" />
            <Array as="points" />
          </mxGeometry>
        </mxCell>
        <mxCell id="pq42PLdv0mAkTyG6DXav-213" value="Hotfeature 2" style="text;html=1;strokeColor=#9673a6;fillColor=#e1d5e7;align=center;verticalAlign=middle;whiteSpace=wrap;rounded=0;" vertex="1" parent="1">
          <mxGeometry x="740" y="197" width="90" height="20" as="geometry" />
        </mxCell>
        <mxCell id="pq42PLdv0mAkTyG6DXav-214" value="hotfix/V4.1.0/hotfeature2" style="ellipse;whiteSpace=wrap;html=1;aspect=fixed;fillColor=#e1d5e7;strokeColor=#9673a6;fontColor=#9673a6;labelPosition=center;verticalLabelPosition=top;align=center;verticalAlign=top;fontStyle=1;fontSize=10;" vertex="1" parent="1">
          <mxGeometry x="227.97" y="197" width="20" height="20" as="geometry" />
        </mxCell>
        <mxCell id="pq42PLdv0mAkTyG6DXav-216" value="" style="ellipse;whiteSpace=wrap;html=1;aspect=fixed;fillColor=#f8cecc;strokeColor=#b85450;" vertex="1" parent="1">
          <mxGeometry x="227.97000000000003" y="120" width="20" height="20" as="geometry" />
        </mxCell>
        <mxCell id="pq42PLdv0mAkTyG6DXav-217" style="edgeStyle=orthogonalEdgeStyle;rounded=1;orthogonalLoop=1;jettySize=auto;html=1;dashed=1;endArrow=none;endFill=0;fontSize=12;fontColor=#FFB570;fillColor=#e1d5e7;strokeColor=#9673a6;" edge="1" parent="1" target="pq42PLdv0mAkTyG6DXav-211">
          <mxGeometry relative="1" as="geometry">
            <Array as="points">
              <mxPoint x="161" y="130" />
            </Array>
            <mxPoint x="150.97" y="129.5" as="sourcePoint" />
            <mxPoint x="180.97" y="190.5" as="targetPoint" />
          </mxGeometry>
        </mxCell>
        <mxCell id="pq42PLdv0mAkTyG6DXav-218" style="edgeStyle=orthogonalEdgeStyle;rounded=1;orthogonalLoop=1;jettySize=auto;html=1;dashed=1;endArrow=none;endFill=0;fontSize=12;fontColor=#FFB570;fillColor=#e1d5e7;strokeColor=#9673a6;" edge="1" parent="1" source="pq42PLdv0mAkTyG6DXav-211" target="pq42PLdv0mAkTyG6DXav-195">
          <mxGeometry relative="1" as="geometry">
            <mxPoint x="211" y="110" as="targetPoint" />
            <Array as="points">
              <mxPoint x="261" y="172" />
              <mxPoint x="261" y="130" />
            </Array>
            <mxPoint x="186" y="160" as="sourcePoint" />
          </mxGeometry>
        </mxCell>
        <mxCell id="pq42PLdv0mAkTyG6DXav-219" style="edgeStyle=orthogonalEdgeStyle;rounded=1;orthogonalLoop=1;jettySize=auto;html=1;dashed=1;endArrow=none;endFill=0;fontSize=12;fontColor=#FFB570;fillColor=#e1d5e7;strokeColor=#9673a6;entryX=0;entryY=0.5;entryDx=0;entryDy=0;" edge="1" parent="1" target="pq42PLdv0mAkTyG6DXav-214">
          <mxGeometry relative="1" as="geometry">
            <Array as="points">
              <mxPoint x="148" y="130" />
              <mxPoint x="161" y="130" />
              <mxPoint x="161" y="190" />
            </Array>
            <mxPoint x="141" y="130" as="sourcePoint" />
            <mxPoint x="176" y="170" as="targetPoint" />
          </mxGeometry>
        </mxCell>
        <mxCell id="pq42PLdv0mAkTyG6DXav-192" value="hotfix/V4.1.0" style="ellipse;whiteSpace=wrap;html=1;aspect=fixed;fillColor=#f8cecc;strokeColor=#b85450;verticalAlign=top;horizontal=1;labelPosition=center;verticalLabelPosition=top;align=center;fontColor=#b85450;fontStyle=1;fontSize=10;" vertex="1" parent="1">
          <mxGeometry x="130.97000000000003" y="120" width="20" height="20" as="geometry" />
        </mxCell>
        <mxCell id="pq42PLdv0mAkTyG6DXav-211" value="hotfix/V4.1.0/hotfeature1" style="ellipse;whiteSpace=wrap;html=1;aspect=fixed;fillColor=#e1d5e7;strokeColor=#9673a6;labelPosition=center;verticalLabelPosition=top;align=center;verticalAlign=top;fontColor=#9673a6;fontStyle=1;fontSize=10;" vertex="1" parent="1">
          <mxGeometry x="180.97" y="162" width="20" height="20" as="geometry" />
        </mxCell>
        <mxCell id="pq42PLdv0mAkTyG6DXav-220" style="edgeStyle=orthogonalEdgeStyle;rounded=1;orthogonalLoop=1;jettySize=auto;html=1;dashed=1;endArrow=none;endFill=0;fontSize=12;fontColor=#FFB570;fillColor=#e1d5e7;strokeColor=#9673a6;entryX=0;entryY=0.5;entryDx=0;entryDy=0;" edge="1" parent="1" source="pq42PLdv0mAkTyG6DXav-210">
          <mxGeometry relative="1" as="geometry">
            <mxPoint x="324" y="130" as="targetPoint" />
            <Array as="points">
              <mxPoint x="308" y="207" />
              <mxPoint x="308" y="130" />
            </Array>
            <mxPoint x="281" y="190" as="sourcePoint" />
          </mxGeometry>
        </mxCell>
        <mxCell id="pq42PLdv0mAkTyG6DXav-210" value="" style="ellipse;whiteSpace=wrap;html=1;aspect=fixed;fillColor=#e1d5e7;strokeColor=#9673a6;" vertex="1" parent="1">
          <mxGeometry x="271" y="197" width="20" height="20" as="geometry" />
        </mxCell>
        <mxCell id="pq42PLdv0mAkTyG6DXav-221" value="" style="endArrow=none;dashed=1;html=1;rounded=0;exitX=1;exitY=0.5;exitDx=0;exitDy=0;entryX=0;entryY=0.5;entryDx=0;entryDy=0;fillColor=#e1d5e7;strokeColor=#9673a6;" edge="1" parent="1" source="pq42PLdv0mAkTyG6DXav-214" target="pq42PLdv0mAkTyG6DXav-210">
          <mxGeometry width="50" height="50" relative="1" as="geometry">
            <mxPoint x="381" y="147" as="sourcePoint" />
            <mxPoint x="431" y="97" as="targetPoint" />
          </mxGeometry>
        </mxCell>
      </root>
    </mxGraphModel>
  </diagram>
</mxfile>
